<svg xmlns="http://www.w3.org/2000/svg" width="1536" height="1024" viewBox="0 0 1536 1024" fill="none" role="img" aria-labelledby="title desc">
  <title id="title">Logo programatica Faco Freela</title>
  <desc id="desc">Versao vetorial redesenhada a partir do contorno do logo original.</desc>
  <defs>
    <linearGradient id="top-gradient" x1="632" y1="415.5" x2="1009" y2="415.5" gradientUnits="userSpaceOnUse">
      <stop offset="0" stop-color="#297CF7" />
      <stop offset="0.52" stop-color="#52B0F7" />
      <stop offset="1" stop-color="#C4F5E8" />
    </linearGradient>
    <linearGradient id="bottom-gradient" x1="537" y1="572.5" x2="796" y2="572.5" gradientUnits="userSpaceOnUse">
      <stop offset="0" stop-color="#C5F5E7" />
      <stop offset="0.55" stop-color="#68C7ED" />
      <stop offset="1" stop-color="#3C8BF0" />
    </linearGradient>
    <linearGradient id="right-gradient" x1="794" y1="512.5" x2="974" y2="512.5" gradientUnits="userSpaceOnUse">
      <stop offset="0" stop-color="#48A8F8" />
      <stop offset="1" stop-color="#B9F1E4" />
    </linearGradient>
    <linearGradient id="inner-gradient" x1="632" y1="610" x2="749" y2="610" gradientUnits="userSpaceOnUse">
      <stop offset="0" stop-color="#17317E" />
      <stop offset="0.55" stop-color="#225FD4" />
      <stop offset="1" stop-color="#2F85FF" />
    </linearGradient>
  </defs>
  <path d="M 728 340.039 C 685.749 344.317, 651.076 371.953, 638.096 411.699 C 633.457 425.905, 632 439.370, 632 468.034 L 632 493 680.500 493 L 729 493 728.995 480.750 C 728.991 471.626, 729.438 467.224, 730.745 463.500 C 733.176 456.575, 740.825 449.007, 748.531 445.904 L 754.500 443.500 839 442.899 C 899.319 442.470, 925.074 441.952, 929 441.089 C 937.840 439.147, 949.002 435.104, 956 431.311 C 967.847 424.888, 979.439 414.166, 987.688 402 C 992.941 394.254, 999.611 379.940, 1003.308 368.481 C 1006.794 357.675, 1010.247 341.232, 1009.341 339.750 C 1008.741 338.769, 737.790 339.048, 728 340.039" fill="url(#top-gradient)" />
  <path d="M 784.500 497 C 781.750 498.631, 776.647 500.924, 773.160 502.094 C 760.212 506.441, 751.222 506.958, 687.500 507.014 C 654.500 507.043, 622.972 507.476, 617.438 507.975 C 599.499 509.594, 585.454 514.214, 572.933 522.614 C 565.611 527.527, 557.244 535.879, 551.982 543.526 C 547.306 550.322, 542.274 561.579, 539.925 570.500 C 538.022 577.726, 537.769 582.055, 537.316 615.250 L 536.814 652 632.907 652 L 729 652 729.022 619.750 C 729.042 590.542, 729.218 587.116, 730.893 583.429 C 734.264 576.006, 738.662 573.349, 762.147 564.542 C 775.105 559.683, 784.928 552.726, 790.076 544.761 C 792.240 541.412, 794.565 536.834, 795.242 534.586 C 795.918 532.339, 796.443 526, 796.407 520.500 C 796.349 511.673, 795.961 509.532, 793.098 502.250 C 791.314 497.712, 789.775 494.008, 789.677 494.017 C 789.580 494.026, 787.250 495.369, 784.500 497" fill="url(#bottom-gradient)" />
  <path d="M 965.500 464.646 C 956.307 466.263, 928.367 466.931, 855.833 467.269 C 828.516 467.396, 805.910 467.756, 805.597 468.069 C 805.285 468.381, 806.833 472.206, 809.037 476.569 C 811.241 480.931, 813.990 488.306, 815.146 492.957 C 816.923 500.109, 817.170 503.426, 816.752 514.457 C 816.335 525.435, 815.821 528.682, 813.503 534.968 C 809.907 544.722, 807.088 549.161, 799.668 556.750 L 793.558 563 835.529 562.969 C 858.613 562.952, 880.832 562.506, 884.904 561.977 C 900.931 559.897, 911.632 556.042, 925 547.534 C 933.467 542.146, 947.884 528.009, 953.791 519.303 C 962.163 506.965, 968.568 492.040, 972.557 475.571 C 975.172 464.778, 975.423 462.932, 974.250 463.120 C 973.837 463.185, 969.900 463.872, 965.500 464.646" fill="url(#right-gradient)" />
  <path d="M 738 570.536 C 734.425 571.222, 729.475 571.885, 727 572.008 C 724.525 572.131, 723.288 572.438, 724.250 572.689 C 726.954 573.396, 726.325 574.859, 722.939 575.736 C 721.255 576.172, 719.867 576.973, 719.854 577.515 C 719.841 578.057, 719.379 579.043, 718.829 579.706 C 718.278 580.370, 718.161 581.452, 718.568 582.111 C 719.020 582.842, 718.886 583.047, 718.224 582.638 C 717.627 582.269, 716.856 582.425, 716.510 582.984 C 716.118 583.618, 717.691 584.006, 720.691 584.015 C 723.336 584.024, 726.120 584.423, 726.878 584.903 C 727.705 585.427, 720.918 585.972, 709.878 586.267 C 690.239 586.793, 681.362 588.346, 668 593.594 C 645.162 602.563, 631.955 620.470, 632.014 642.386 C 632.021 645.199, 632.299 648.513, 632.630 649.750 L 633.233 652 681.117 652 L 729 652 729.074 619.750 C 729.115 602.013, 729.340 586.472, 729.573 585.217 C 730.098 582.395, 732.900 578, 734.174 578 C 734.693 578, 734.794 577.438, 734.399 576.750 C 734.003 576.063, 734.038 575.824, 734.477 576.220 C 734.915 576.617, 736.530 576.047, 738.064 574.954 C 739.599 573.861, 742.800 572.085, 745.177 571.006 C 748.530 569.484, 748.939 569.071, 747 569.165 C 745.625 569.232, 741.575 569.849, 738 570.536" fill="url(#inner-gradient)" />
  <path d="M 723.500 340.104 C 721.300 340.597, 718.600 341.203, 717.500 341.452 C 716.400 341.700, 714.600 342.037, 713.500 342.201 C 712.400 342.366, 711.241 342.849, 710.925 343.277 C 710.608 343.704, 708.921 344.154, 707.177 344.277 C 705.432 344.399, 704.003 344.875, 704.002 345.333 C 704.001 345.792, 703.442 345.981, 702.759 345.753 C 702.076 345.525, 700.893 345.964, 700.130 346.727 C 699.367 347.490, 698.154 347.889, 697.436 347.614 C 696.717 347.338, 695.988 347.446, 695.815 347.853 C 695.642 348.261, 692.407 350.283, 688.627 352.346 C 680.579 356.739, 668.022 366.162, 662.907 371.647 C 658.202 376.692, 650.689 386.713, 648.773 390.500 C 647.813 392.399, 647.550 394.234, 648.058 395.500 C 648.725 397.166, 648.871 397.211, 648.930 395.773 C 648.968 394.823, 650.121 393.312, 651.491 392.414 C 652.862 391.516, 653.735 390.380, 653.432 389.891 C 653.130 389.401, 653.359 388.944, 653.941 388.875 C 654.523 388.806, 655.441 388.694, 655.981 388.625 C 656.520 388.556, 657.613 387.570, 658.409 386.434 C 662.055 381.229, 671.636 371.842, 677.202 368.022 C 687.238 361.135, 691 358.921, 691 359.904 C 691 360.414, 689.676 361.418, 688.059 362.134 C 685.621 363.213, 685.321 363.699, 686.309 364.968 C 687.314 366.261, 687.261 366.314, 685.966 365.307 C 684.393 364.084, 682.643 364.681, 682.315 366.554 C 682.031 368.178, 688.774 368.031, 689.400 366.399 C 689.948 364.972, 693.097 364.385, 692.882 365.750 C 692.575 367.692, 693.120 368.359, 693.947 367.052 C 694.656 365.931, 695.021 366.270, 695.566 368.552 C 696.523 372.565, 698.834 375, 701.686 375 C 702.993 375, 704.321 375.672, 704.636 376.494 C 704.952 377.316, 705.612 377.740, 706.105 377.435 C 706.597 377.131, 707 377.359, 707 377.941 C 707 378.523, 707.450 379, 708 379 C 708.550 379, 709 378.325, 709 377.500 C 709 376.675, 708.325 376, 707.500 376 C 706.675 376, 706 375.325, 706 374.500 C 706 372.357, 707.741 372.647, 709 375 C 709.589 376.100, 710.756 377, 711.594 377 C 712.432 377, 712.859 376.581, 712.543 376.069 C 712.226 375.557, 712.436 374.849, 713.008 374.495 C 713.581 374.141, 713.926 374.427, 713.775 375.130 C 713.624 375.834, 714.025 376.430, 714.667 376.455 C 715.308 376.480, 716.140 376.806, 716.514 377.181 C 716.889 377.556, 717.827 377.620, 718.598 377.324 C 720.199 376.710, 720.525 378.557, 718.984 379.510 C 718.425 379.856, 718.256 380.605, 718.609 381.176 C 719.024 381.847, 719.586 381.735, 720.201 380.857 C 720.966 379.766, 721.254 379.753, 721.673 380.792 C 722.084 381.809, 722.505 381.826, 723.654 380.872 C 724.456 380.206, 725.034 380.075, 724.938 380.581 C 724.520 382.780, 725.083 385, 726.059 385 C 726.641 385, 726.854 384.573, 726.531 384.050 C 726.208 383.528, 726.857 382.612, 727.972 382.015 C 730.697 380.557, 734.682 382.474, 733.039 384.453 C 731.414 386.412, 734.762 387.381, 736.646 385.497 C 737.469 384.674, 738.304 384, 738.500 384 C 738.696 384, 739.605 384.748, 740.519 385.662 C 741.924 387.067, 742.320 387.106, 743.075 385.912 C 743.755 384.838, 743.973 385.039, 743.985 386.750 C 743.999 388.808, 745.497 389.602, 748.373 389.078 C 748.853 388.990, 748.990 389.583, 748.679 390.394 C 748.367 391.206, 748.650 392.057, 749.306 392.284 C 750.890 392.832, 755 390.947, 755 389.673 C 755 389.119, 755.337 389.004, 755.750 389.417 C 756.163 389.829, 756.500 390.649, 756.500 391.238 C 756.500 391.827, 757.288 392.425, 758.250 392.566 C 759.240 392.711, 760 392.184, 760 391.352 C 760 390.544, 760.450 390.160, 761 390.500 C 761.550 390.840, 762 390.641, 762 390.059 C 762 389.477, 762.487 389, 763.083 389 C 763.679 389, 763.977 389.563, 763.745 390.250 C 763.513 390.938, 764.806 392.400, 766.620 393.500 C 768.433 394.600, 769.935 395.837, 769.958 396.250 C 769.981 396.663, 770.287 396.962, 770.638 396.915 C 770.989 396.868, 771.657 397.430, 772.123 398.165 C 772.754 399.160, 772.973 399.005, 772.985 397.559 C 773 395.680, 773.044 395.677, 774.355 397.471 C 775.101 398.491, 776.366 399.074, 777.167 398.766 C 778.058 398.424, 779.375 399.329, 780.562 401.101 C 781.628 402.692, 783.175 403.989, 784 403.982 C 785.033 403.973, 785.137 403.739, 784.335 403.228 C 783.480 402.684, 783.582 401.957, 784.720 400.494 C 785.971 398.884, 786.153 398.837, 785.666 400.250 C 785.233 401.506, 785.588 402, 786.924 402 C 787.948 402, 789.057 402.706, 789.388 403.569 C 789.788 404.612, 790.663 404.924, 791.995 404.502 C 793.098 404.152, 794 404.315, 794 404.865 C 794 405.415, 794.907 406.153, 796.015 406.505 C 797.123 406.856, 797.771 407.562, 797.456 408.072 C 797.140 408.582, 797.326 409, 797.868 409 C 798.410 409, 799.059 409.788, 799.311 410.750 C 799.664 412.103, 799.794 412.004, 799.884 410.312 C 799.966 408.774, 800.594 408.169, 802 408.275 C 803.100 408.358, 804 408.806, 804 409.272 C 804 409.737, 804.498 409.810, 805.107 409.434 C 805.861 408.968, 805.987 409.466, 805.502 410.993 C 804.978 412.645, 805.148 413.117, 806.145 412.785 C 806.890 412.537, 807.556 411.808, 807.625 411.167 C 807.694 410.525, 807.806 409.550, 807.875 409 C 807.944 408.450, 808.477 408, 809.059 408 C 809.641 408, 809.890 408.370, 809.610 408.822 C 809.127 409.603, 811.644 412.319, 813.261 412.760 C 813.679 412.874, 815.105 413.678, 816.431 414.547 C 819.231 416.381, 824.705 417.287, 825.473 416.043 C 826.341 414.639, 829.997 416.102, 830.032 417.867 C 830.058 419.226, 830.322 419.164, 831.602 417.500 C 832.449 416.400, 833.631 415.636, 834.229 415.803 C 834.827 415.969, 835.689 415.519, 836.143 414.803 C 836.777 413.804, 836.973 413.791, 836.985 414.750 C 836.993 415.438, 837.702 416, 838.559 416 C 839.540 416, 839.840 415.537, 839.367 414.750 C 838.857 413.901, 839.158 413.940, 840.308 414.872 C 841.515 415.851, 842 415.903, 842 415.054 C 842 414.344, 843.209 414.725, 845 416 L 848 418.136 848 415.997 C 848 414.029, 850.078 411, 851.429 411 C 851.743 411, 852.007 412.012, 852.015 413.250 C 852.028 415.069, 852.216 415.213, 853 414 C 853.835 412.707, 853.971 412.734, 853.985 414.191 C 853.993 415.121, 854.498 416.190, 855.107 416.566 C 855.845 417.022, 855.998 416.570, 855.566 415.209 C 855.210 414.087, 855.382 412.882, 855.948 412.532 C 856.560 412.154, 856.736 412.525, 856.382 413.448 C 856.054 414.302, 856.284 415, 856.893 415 C 857.863 415, 858.374 413.770, 858.174 411.917 C 858.139 411.596, 858.776 411.333, 859.589 411.333 C 860.606 411.333, 860.744 411.656, 860.033 412.367 C 858.424 413.976, 858.809 414.890, 861.025 414.723 C 862.227 414.633, 862.849 414.049, 862.556 413.285 C 862.285 412.578, 862.724 412, 863.531 412 C 864.339 412, 865 412.488, 865 413.083 C 865 413.679, 865.563 413.973, 866.250 413.735 C 866.938 413.498, 868.594 414.472, 869.931 415.899 C 872.181 418.300, 872.320 418.333, 871.799 416.341 C 871.475 415.100, 871.989 413.040, 873.014 411.478 C 874.738 408.850, 874.812 408.833, 875.463 410.884 C 875.833 412.048, 876.554 413, 877.067 413 C 878.457 413, 878.195 410.245, 876.750 409.662 C 876.063 409.385, 876.647 409.122, 878.050 409.079 C 879.452 409.036, 881.089 409.489, 881.687 410.087 C 882.461 410.861, 882.966 410.865, 883.439 410.098 C 883.890 409.369, 884.896 409.541, 886.557 410.629 C 888.557 411.940, 889.292 412.003, 890.536 410.970 C 891.795 409.925, 892.333 410.036, 893.605 411.602 C 895.103 413.444, 895.135 413.438, 894.702 411.379 C 894.425 410.064, 894.967 408.745, 896.127 407.908 C 897.157 407.166, 898 406.009, 898 405.338 C 898 403.413, 900.125 402.603, 901.188 404.122 C 901.897 405.135, 902.282 405.184, 902.641 404.306 C 902.909 403.650, 903.773 403.359, 904.559 403.661 C 905.345 403.963, 905.740 404.612, 905.435 405.105 C 905.131 405.597, 905.359 406, 905.941 406 C 907.666 406, 908.516 405.548, 908.257 404.770 C 908.123 404.369, 909.811 404.214, 912.007 404.425 C 914.830 404.697, 915.804 404.471, 915.328 403.655 C 914.959 403.020, 915.576 403.305, 916.701 404.290 C 918.678 406.020, 918.764 406.010, 919.300 403.961 C 919.737 402.289, 919.503 401.977, 918.189 402.481 C 916.894 402.978, 916.966 402.694, 918.512 401.205 C 919.605 400.152, 920.651 399.677, 920.835 400.151 C 921.020 400.625, 921.582 400.758, 922.085 400.447 C 922.588 400.136, 923 400.376, 923 400.980 C 923 401.687, 923.496 401.619, 924.389 400.789 C 925.396 399.855, 925.465 399.298, 924.639 398.765 C 923.803 398.226, 923.816 398.027, 924.691 398.015 C 925.346 398.007, 926.160 398.450, 926.500 399 C 927.408 400.470, 928.367 400.238, 930.811 397.961 C 932.015 396.840, 933.007 396.277, 933.015 396.711 C 933.024 397.145, 933.467 396.825, 934 396 C 934.646 395, 934.974 394.917, 934.985 395.750 C 934.993 396.438, 935.408 397, 935.906 397 C 936.405 397, 936.563 395.988, 936.259 394.750 C 935.954 393.512, 936.073 392.839, 936.523 393.254 C 936.972 393.668, 938.389 393.320, 939.670 392.480 C 941.067 391.565, 942 391.387, 942 392.036 C 942 392.631, 942.481 392.821, 943.068 392.458 C 943.656 392.095, 943.912 391.212, 943.637 390.497 C 943.362 389.781, 943.410 388.923, 943.743 388.591 C 944.076 388.258, 944.496 386.751, 944.678 385.243 C 944.860 383.734, 945.103 381.724, 945.219 380.775 C 945.334 379.826, 946.031 378.819, 946.766 378.536 C 947.502 378.254, 947.858 378.421, 947.558 378.907 C 946.988 379.828, 949.463 381.203, 950.259 380.408 C 950.509 380.158, 950.493 378.797, 950.223 377.385 C 949.910 375.748, 949.463 375.251, 948.991 376.015 C 948.460 376.874, 948.056 376.900, 947.566 376.107 C 947.190 375.498, 947.428 375, 948.096 375 C 948.845 375, 948.584 374.139, 947.412 372.750 C 945.609 370.613, 945.648 370.618, 948.188 372.859 C 949.823 374.302, 951.116 376.729, 951.518 379.109 C 951.904 381.389, 952.736 383, 953.529 383 C 955.304 383, 956.313 381.312, 955.016 380.510 C 954.457 380.165, 954 380.434, 954 381.108 C 954 381.782, 953.711 382.044, 953.357 381.691 C 952.336 380.669, 955.180 377.855, 956.660 378.423 C 957.397 378.706, 958.007 378.389, 958.015 377.719 C 958.025 376.948, 958.387 377.051, 959 378 C 959.862 379.333, 959.984 379.333, 960.103 378 C 960.339 375.355, 959.830 373.520, 958.650 372.755 C 958.018 372.345, 959.424 372.152, 961.777 372.325 C 964.129 372.499, 966.434 372.159, 966.900 371.570 C 967.365 370.982, 967.849 367.350, 967.975 363.500 C 968.100 359.650, 968.260 354.813, 968.329 352.750 C 968.466 348.685, 969.071 348.175, 971 350.500 C 971.685 351.325, 972.710 352, 973.277 352 C 973.845 352, 973.495 351.100, 972.500 350 C 971.505 348.900, 970.085 348, 969.345 348 C 968.605 348, 968 347.564, 968 347.031 C 968 346.499, 968.629 346.304, 969.399 346.600 C 970.168 346.895, 971.095 346.656, 971.458 346.068 C 971.851 345.433, 971.216 345, 969.892 345 C 968.668 345, 967.971 344.696, 968.343 344.323 C 968.715 343.951, 971.603 343.532, 974.760 343.392 C 977.917 343.252, 980.500 343.056, 980.500 342.956 C 980.500 342.589, 987.729 341.770, 996.500 341.143 C 1008.904 340.257, 937.755 339.524, 822.500 339.351 C 769.549 339.271, 725.730 339.605, 723.500 340.104 M 963.667 367.667 C 963.300 368.033, 963.014 369.046, 963.030 369.917 C 963.055 371.217, 963.251 371.174, 964.122 369.675 C 965.199 367.823, 964.887 366.447, 963.667 367.667 M 698 372.094 C 698 372.592, 698.413 373, 698.918 373 C 699.423 373, 700.622 373.301, 701.582 373.670 C 702.680 374.091, 703.087 373.950, 702.680 373.291 C 701.825 371.908, 698 370.930, 698 372.094 M 944 377 C 944 377.550, 944.477 378, 945.059 378 C 945.641 378, 945.840 377.550, 945.500 377 C 945.160 376.450, 944.684 376, 944.441 376 C 944.198 376, 944 376.450, 944 377 M 927.333 397.456 C 927.333 398.257, 927.716 398.676, 928.183 398.387 C 928.650 398.098, 928.774 397.443, 928.457 396.931 C 927.649 395.623, 927.333 395.770, 927.333 397.456" fill="#9BEDE8" fill-opacity="0.34" />
  <path d="M 680.268 590.040 C 656.500 596.181, 640.924 608.545, 634.968 626 C 633.289 630.921, 632.743 634.856, 632.723 642.201 L 632.696 651.903 628.098 652.271 C 625.569 652.474, 643.525 652.624, 668 652.606 C 695.878 652.584, 705.963 652.358, 695 652 L 677.500 651.428 692 651.057 C 702.685 650.783, 705.184 650.505, 701.500 650 C 697.107 649.398, 696.925 649.287, 700 649.087 C 702.924 648.897, 703.171 648.718, 701.500 648 C 700.400 647.527, 699.995 647.109, 700.600 647.070 C 701.277 647.027, 701.546 645.461, 701.300 643 C 701.018 640.184, 701.285 638.995, 702.200 638.985 C 703.170 638.973, 703.136 638.739, 702.064 638.061 C 700.874 637.308, 700.853 636.883, 701.937 635.576 C 702.656 634.709, 702.895 634, 702.467 634 C 702.040 634, 702.348 633.212, 703.151 632.250 C 704.027 631.201, 704.590 628.496, 704.556 625.500 C 704.525 622.750, 704.950 620.128, 705.500 619.674 C 706.148 619.138, 706.063 618.670, 705.258 618.343 C 704.355 617.976, 704.296 617.315, 705.043 615.919 C 705.608 614.864, 705.814 614, 705.500 614 C 705.186 614, 705.411 613.100, 706 612 C 706.784 610.535, 706.760 610, 705.913 610 C 705.123 610, 705.071 609.603, 705.749 608.750 C 707.217 606.904, 706.400 603.743, 703.941 601.751 C 702.752 600.788, 702.278 600, 702.889 600 C 703.500 600, 704 599.556, 704 599.013 C 704 597.541, 696.956 594.879, 694.839 595.551 C 693.828 595.872, 693 595.682, 693 595.130 C 693 594.577, 692.212 594.121, 691.250 594.117 C 690.288 594.113, 687.535 593.685, 685.133 593.168 C 682.376 592.573, 679.484 592.580, 677.289 593.186 C 675.377 593.714, 673.600 593.933, 673.340 593.674 C 673.081 593.414, 677.510 592.062, 683.184 590.669 C 688.858 589.277, 692.150 588.145, 690.500 588.154 C 688.850 588.164, 684.246 589.012, 680.268 590.040" fill="#63D8FF" fill-opacity="0.12" />
  <path d="M 784 498.174 C 777.425 502.401, 766.018 505.659, 753.500 506.886 C 747 507.523, 715.196 508.004, 675.750 508.063 C 632.220 508.127, 609 508.507, 609 509.156 C 609 509.703, 607.763 510.052, 606.250 509.932 C 604.737 509.811, 602.825 509.997, 602 510.345 C 601.175 510.692, 599.375 511.094, 598 511.238 C 596.625 511.382, 595.275 511.747, 595 512.049 C 593.984 513.165, 583.171 516.838, 582.596 516.263 C 582.268 515.935, 582 516.218, 582 516.892 C 582 517.566, 581.588 517.864, 581.085 517.553 C 580.582 517.242, 580.020 517.359, 579.835 517.813 C 579.651 518.267, 576.800 520.466, 573.500 522.699 C 570.200 524.932, 564.980 529.409, 561.900 532.648 C 556.495 538.332, 555.512 540.784, 557.410 543.855 C 557.873 544.603, 557.744 545.656, 557.113 546.287 C 556.501 546.899, 556 547.817, 556 548.326 C 556 548.835, 559.537 545.657, 563.861 541.263 C 568.185 536.870, 574.147 531.455, 577.111 529.231 C 582.615 525.101, 590.400 520.705, 592.845 520.347 C 593.594 520.237, 596.972 519.241, 600.353 518.135 C 610.674 514.756, 622.782 512.773, 638.500 511.888 C 646.750 511.423, 656.425 510.765, 660 510.425 C 670.369 509.439, 702.392 509.248, 703.602 510.164 C 704.208 510.623, 716.808 510.818, 731.602 510.597 C 760.125 510.171, 769.863 508.974, 779 504.773 C 781.475 503.635, 783.950 502.589, 784.500 502.449 C 785.050 502.308, 786.288 501.877, 787.250 501.490 C 788.268 501.080, 789 501.236, 789 501.862 C 789 502.453, 789.640 502.692, 790.421 502.392 C 791.538 501.963, 791.624 501.220, 790.823 498.921 C 790.262 497.313, 789.510 495.835, 789.152 495.639 C 788.793 495.442, 786.475 496.583, 784 498.174 M 560.603 539.833 C 560.320 540.292, 560.743 540.667, 561.544 540.667 C 562.345 540.667, 563 540.292, 563 539.833 C 563 539.375, 562.577 539, 562.059 539 C 561.541 539, 560.886 539.375, 560.603 539.833" fill="#8FE3F2" fill-opacity="0.26" />
  <path d="M 812.030 482.239 C 812.014 482.645, 812.989 486.470, 814.198 490.739 C 815.960 496.959, 816.382 500.981, 816.322 511 C 816.200 531.448, 812.516 541.826, 800.811 554.701 L 793.720 562.500 800.110 562.811 C 803.625 562.982, 824.950 562.948, 847.500 562.735 C 885.846 562.373, 889.050 562.205, 897 560.139 C 908.378 557.183, 922.184 550.340, 931.153 543.209 C 940.245 535.981, 953.229 522.038, 952.540 520.242 C 952.259 519.511, 953.087 517.239, 954.378 515.193 C 955.670 513.146, 957.963 509.033, 959.473 506.053 C 961.973 501.120, 962.072 500.526, 960.580 499.435 C 959.065 498.327, 959.067 498.188, 960.614 497.595 C 961.534 497.242, 962.061 496.728, 961.786 496.453 C 960.861 495.528, 958 497.200, 958 498.666 C 958 499.465, 957.578 499.857, 957.061 499.538 C 956.545 499.219, 955.659 499.755, 955.092 500.729 C 954.283 502.118, 954.048 502.176, 954 501 C 953.952 499.813, 953.726 499.866, 952.920 501.250 C 952.352 502.225, 950.704 503.007, 949.200 503.015 C 945.211 503.038, 943.901 504.283, 943.690 508.254 C 943.553 510.827, 943.178 511.551, 942.339 510.860 C 941.592 510.244, 940.947 510.277, 940.530 510.951 C 939.643 512.386, 933.678 512.278, 932.200 510.800 C 931.267 509.867, 931 509.867, 931 510.800 C 931 511.460, 930.339 512, 929.532 512 C 928.725 512, 927.368 513.237, 926.518 514.750 C 925.341 516.842, 925.035 517.021, 925.236 515.500 C 925.381 514.400, 925.950 513.177, 926.500 512.783 C 927.050 512.388, 925.720 512.163, 923.544 512.283 C 920.339 512.459, 919.484 512.934, 919.044 514.785 L 918.500 517.071 916.501 514.785 L 914.503 512.500 914.180 514.765 C 914.002 516.010, 913.459 516.784, 912.972 516.483 C 912.486 516.182, 912.341 515.275, 912.651 514.468 C 912.960 513.661, 912.764 513, 912.214 513 C 910.729 513, 910.004 515.604, 911.165 516.765 C 911.844 517.444, 911.768 518.025, 910.933 518.542 C 910.149 519.026, 909.945 518.899, 910.378 518.197 C 910.776 517.554, 909.825 516.444, 908.123 515.564 C 906.505 514.727, 904.951 513.470, 904.669 512.771 C 904.388 512.072, 904.122 513.011, 904.079 514.857 C 904.020 517.346, 903.629 518.071, 902.563 517.662 C 901.728 517.342, 900.938 517.821, 900.679 518.805 C 900.432 519.742, 900.149 519.158, 900.046 517.500 C 899.883 514.887, 899.749 514.758, 899 516.500 C 898.527 517.600, 898.109 517.938, 898.070 517.250 C 898.032 516.563, 897.270 516, 896.378 516 C 895.110 516, 895.006 516.302, 895.903 517.383 C 896.781 518.441, 896.729 518.890, 895.685 519.291 C 894.933 519.579, 893.709 519.438, 892.963 518.977 C 892.209 518.511, 890.807 518.568, 889.804 519.105 C 888.497 519.804, 888 519.714, 888 518.776 C 888 517.448, 884.482 514.763, 882.250 514.387 C 881.563 514.272, 881 514.812, 881 515.588 C 881 516.365, 881.506 516.888, 882.125 516.750 C 882.744 516.613, 883.453 517.175, 883.701 518 C 884.102 519.333, 884.034 519.333, 883.091 518 C 882.508 517.175, 882.024 516.907, 882.015 517.405 C 882.007 517.903, 881.100 517.495, 880 516.500 C 878.866 515.474, 878 515.190, 878 515.845 C 878 516.480, 877.523 517, 876.941 517 C 876.359 517, 876.086 516.663, 876.336 516.250 C 876.586 515.837, 876.162 514.920, 875.395 514.211 C 874.628 513.501, 873.993 513.276, 873.985 513.711 C 873.976 514.145, 873.533 513.825, 873 513 C 872.291 511.903, 872.027 512.650, 872.015 515.785 C 872.001 519.928, 871.925 520.029, 869.750 518.833 C 866.712 517.163, 865 516.955, 865 518.255 C 865 520.217, 863.921 518.294, 863.395 515.395 C 862.682 511.463, 862.014 511.093, 861.930 514.583 C 861.876 516.827, 861.694 517.079, 861.141 515.676 C 860.745 514.673, 860.007 513.919, 859.500 514 C 858.993 514.081, 858.255 513.327, 857.859 512.324 C 857.064 510.306, 856.873 510.875, 856.651 515.916 C 856.558 518.008, 855.918 519.492, 855 519.742 C 854.105 519.987, 853.903 519.819, 854.500 519.326 C 855.772 518.275, 856.066 515, 854.889 515 C 854.400 515, 854 515.454, 854 516.008 C 854 516.618, 853.235 516.539, 852.066 515.809 C 851.003 515.145, 850.215 514.185, 850.316 513.676 C 850.417 513.167, 849.973 512.556, 849.329 512.318 C 848.558 512.034, 848.355 512.643, 848.736 514.099 C 849.160 515.719, 848.976 516.103, 848.050 515.531 C 847.119 514.955, 846.963 515.309, 847.460 516.875 C 847.959 518.447, 847.712 519, 846.508 519 C 845.614 519, 845.129 518.601, 845.430 518.113 C 845.731 517.626, 845.337 516.694, 844.553 516.044 C 843.572 515.230, 842.554 515.168, 841.288 515.846 C 840.077 516.494, 838.839 516.489, 837.663 515.832 C 836.682 515.282, 835.254 515.072, 834.490 515.365 C 833.617 515.700, 833.294 515.398, 833.619 514.550 C 833.904 513.809, 833.656 512.905, 833.068 512.542 C 832.022 511.896, 831.719 512.737, 831.733 516.250 C 831.742 518.640, 830.555 518.446, 828.674 515.750 C 827.312 513.796, 827.098 513.738, 827.052 515.309 C 827.023 516.328, 826.534 516.830, 825.933 516.459 C 825.347 516.096, 825.100 515.566, 825.386 515.281 C 826.063 514.604, 823.979 512.569, 821.741 511.722 C 820.773 511.355, 820.039 510.706, 820.109 510.278 C 820.179 509.850, 820.097 508.375, 819.927 507 C 819.757 505.625, 819.339 508.775, 819 514 L 818.383 523.500 818.184 512.500 C 818.060 505.591, 817.241 498.392, 815.982 493.142 C 814.236 485.857, 812.122 480.024, 812.030 482.239" fill="#2B68C7" fill-opacity="0.34" />
  <path d="M 632.233 465.750 L 632 493 680.346 493 L 728.692 493 729.306 479.397 C 729.798 468.518, 730.340 464.930, 732.010 461.479 C 734.733 455.855, 741.716 449.493, 748.825 446.160 L 754.500 443.500 830.500 442.966 L 906.500 442.431 832.468 442.216 C 771.721 442.039, 757.467 442.251, 753.039 443.400 C 750.071 444.170, 747.065 444.578, 746.359 444.308 C 745.653 444.037, 744.813 442.985, 744.491 441.971 C 744.005 440.440, 743.109 440.197, 739.203 440.539 C 736.616 440.766, 733.703 440.989, 732.728 441.036 C 731.637 441.088, 731.231 441.578, 731.670 442.311 C 732.110 443.043, 731.749 442.985, 730.733 442.162 C 729.288 440.990, 728.996 441.167, 728.390 443.584 L 727.697 446.344 725.848 444.061 L 724 441.778 723.968 444.139 C 723.940 446.265, 723.809 446.333, 722.661 444.822 C 721.871 443.784, 720.887 443.452, 720.079 443.951 C 719.016 444.608, 719.026 444.858, 720.137 445.300 C 720.997 445.642, 721.061 445.871, 720.309 445.921 C 718.445 446.045, 717.591 443.873, 719.122 442.904 C 720.139 442.259, 719.895 442.027, 718.191 442.015 C 716.906 442.007, 716.156 442.443, 716.499 442.999 C 716.855 443.575, 716.140 443.892, 714.808 443.749 C 713.434 443.601, 712.596 443.991, 712.738 444.714 C 712.885 445.463, 712.343 445.685, 711.324 445.294 C 710.216 444.869, 709.910 445.045, 710.395 445.830 C 711.389 447.438, 710.160 447.303, 708.476 445.619 C 707.717 444.860, 707.374 443.960, 707.714 443.619 C 708.055 443.279, 707.808 443, 707.167 443 C 706.525 443, 706 443.637, 706 444.417 C 706 445.196, 705.554 445.983, 705.009 446.167 C 704.463 446.350, 703.915 447.738, 703.791 449.250 C 703.615 451.380, 703.050 452, 701.282 452 C 699.920 452, 699 451.395, 699 450.500 C 699 449.675, 698.564 449, 698.031 449 C 697.499 449, 697.324 449.680, 697.643 450.511 C 698.051 451.576, 697.764 451.846, 696.668 451.426 C 695.813 451.098, 694.915 450.081, 694.673 449.165 C 694.385 448.078, 694.192 448.323, 694.116 449.872 C 694.020 451.832, 693.747 452.035, 692.544 451.036 C 691.008 449.762, 688.590 450.528, 689.500 452 C 689.793 452.474, 689.575 453.144, 689.016 453.490 C 688.457 453.835, 687.993 453.529, 687.985 452.809 C 687.973 451.845, 687.724 451.888, 687.037 452.974 C 686.441 453.916, 686.485 454.682, 687.160 455.099 C 687.886 455.547, 687.864 455.966, 687.090 456.444 C 686.473 456.826, 686.207 457.526, 686.500 458 C 686.793 458.474, 686.463 459.190, 685.766 459.591 C 685.070 459.992, 684.831 459.955, 685.234 459.509 C 685.638 459.063, 685.203 458.138, 684.268 457.454 C 682.874 456.435, 682.321 456.507, 681.209 457.855 C 680.463 458.760, 680.137 458.938, 680.485 458.250 C 680.833 457.563, 680.641 457, 680.059 457 C 679.477 457, 679 457.675, 679 458.500 C 679 459.325, 679.505 460, 680.122 460 C 680.948 460, 680.950 460.355, 680.131 461.342 C 679.519 462.080, 679.212 462.878, 679.449 463.116 C 679.687 463.353, 678.333 464.032, 676.441 464.625 C 673.768 465.461, 673 465.420, 673 464.439 C 673 463.745, 672.212 463.328, 671.250 463.512 C 670.288 463.696, 669.114 463.881, 668.643 463.923 C 668.172 463.966, 668.018 464.603, 668.300 465.341 C 668.583 466.078, 668.432 467.300, 667.965 468.057 C 667.477 468.846, 667.537 469.942, 668.106 470.627 C 668.767 471.424, 668.739 472.043, 668.024 472.485 C 667.433 472.850, 667.074 472.608, 667.225 471.947 C 667.380 471.269, 666.193 470.596, 664.500 470.404 C 661.679 470.084, 661.634 470.130, 663.750 471.185 C 664.987 471.801, 666 472.742, 666 473.275 C 666 473.809, 665.365 473.718, 664.589 473.074 C 663.624 472.273, 662.973 472.235, 662.530 472.951 C 662.174 473.528, 662.471 474.007, 663.191 474.015 C 664.229 474.027, 664.218 474.209, 663.137 474.894 C 662.179 475.501, 662.112 475.920, 662.912 476.304 C 663.628 476.648, 663.578 476.754, 662.775 476.592 C 662.074 476.450, 661.444 475.808, 661.375 475.167 C 661.146 473.033, 661.013 473.009, 659 474.732 C 657.074 476.381, 656.068 481.694, 657.895 480.565 C 658.388 480.260, 659.040 480.661, 659.344 481.455 C 659.666 482.292, 659.167 483.129, 658.157 483.450 C 656.998 483.818, 656.429 485.006, 656.456 487.001 C 656.496 489.994, 656.508 490, 662.498 490.015 C 666.040 490.024, 667.967 490.369, 667.199 490.856 C 666.484 491.309, 658.504 491.758, 649.466 491.852 L 633.033 492.024 632.749 465.262 L 632.466 438.500 632.233 465.750 M 743.441 446.555 C 741.611 448.022, 741.643 448.042, 744 446.920 C 747.061 445.462, 747.628 445, 746.358 445 C 745.821 445, 744.509 445.700, 743.441 446.555 M 738.872 449.750 C 737.629 451.336, 737.664 451.371, 739.250 450.128 C 740.916 448.821, 741.445 448, 740.622 448 C 740.415 448, 739.627 448.788, 738.872 449.750 M 672.500 468 C 672.160 468.550, 672.359 469, 672.941 469 C 673.523 469, 674 468.550, 674 468 C 674 467.450, 673.802 467, 673.559 467 C 673.316 467, 672.840 467.450, 672.500 468 M 658.459 477.067 C 658.096 477.653, 658.014 478.348, 658.276 478.610 C 658.538 478.872, 659.019 478.392, 659.345 477.543 C 660.021 475.781, 659.445 475.471, 658.459 477.067 M 660 479.059 C 660 479.641, 660.450 479.840, 661 479.500 C 661.550 479.160, 662 478.684, 662 478.441 C 662 478.198, 661.550 478, 661 478 C 660.450 478, 660 478.477, 660 479.059" fill="#1E59B5" fill-opacity="0.24" />
  <path d="M 704.500 572.711 C 697.142 573.400, 679.303 577.009, 672.866 579.111 C 664.086 581.978, 650.624 589.085, 643.820 594.445 C 637.260 599.612, 628.909 609.297, 625.861 615.273 C 621.505 623.811, 619.836 630.394, 619.274 641.250 L 618.717 652 625.938 652 L 633.159 652 632.490 645.750 C 630.678 628.828, 638.572 612.115, 653.359 601.564 C 661.681 595.625, 671.446 591.650, 684.208 589.005 C 689.841 587.838, 694.649 586.684, 694.892 586.441 C 695.861 585.472, 690.021 586.133, 681.249 587.984 C 672.364 589.860, 668.374 589.822, 669.578 587.874 C 669.890 587.370, 668.874 586.973, 667.322 586.992 C 665.770 587.010, 663.825 586.967, 663 586.894 C 662.175 586.821, 660.600 587.066, 659.500 587.438 C 658.400 587.811, 659.525 586.978, 662 585.588 C 671.504 580.249, 686.874 576.337, 711 573.115 C 716.283 572.409, 716.658 572.255, 713 572.292 C 710.525 572.316, 706.700 572.505, 704.500 572.711" fill="#0D286F" fill-opacity="0.38" />
  <path d="M 738.500 570.011 C 736.850 570.381, 734.193 570.460, 732.595 570.186 C 730.481 569.824, 729.894 570.019, 730.441 570.904 C 731.013 571.830, 729.675 572, 724.846 571.614 C 721.356 571.335, 719.980 571.421, 721.789 571.804 C 723.598 572.187, 725.173 572.944, 725.289 573.487 C 725.405 574.029, 724.261 575.067, 722.747 575.793 C 720.440 576.898, 717 581.482, 717 583.450 C 717 583.753, 718.913 584.036, 721.250 584.079 C 723.587 584.122, 724.935 584.386, 724.244 584.664 C 722.473 585.378, 723.733 587, 726.059 587 C 727.937 587, 728.005 588.056, 728.166 619.750 L 728.332 652.500 729.045 618.260 C 729.681 587.683, 729.950 583.724, 731.562 581.260 C 734.207 577.215, 735.095 576.482, 741.978 572.667 C 747.988 569.337, 748.102 569.203, 744.867 569.269 C 743.015 569.307, 740.150 569.641, 738.500 570.011" fill="#18408F" fill-opacity="0.34" />
</svg>
