<svg width="160" height="160" viewBox="0 0 160 160" fill="none" xmlns="http://www.w3.org/2000/svg">
  <defs>
    <linearGradient id="outer" x1="18" y1="12" x2="150" y2="148" gradientUnits="userSpaceOnUse">
      <stop stop-color="#1e40af" />
      <stop offset="1" stop-color="#2563eb" />
    </linearGradient>
    <linearGradient id="inner" x1="40" y1="36" x2="132" y2="128" gradientUnits="userSpaceOnUse">
      <stop stop-color="#ffffff" stop-opacity="0.9" />
      <stop offset="1" stop-color="#e8f0ff" stop-opacity="0.95" />
    </linearGradient>
  </defs>
  <rect x="4" y="4" width="152" height="152" rx="44" fill="url(#outer)" />
  <rect x="20" y="20" width="120" height="120" rx="30" fill="url(#inner)" />
  <path d="M52 52h48a8 8 0 0 1 0 16H68v14h26a8 8 0 0 1 0 16H68v14a8 8 0 0 1-16 0V60a8 8 0 0 1 8-8Z" fill="#1d4ed8" />
  <path d="M90 74h18c4.4 0 8 3.6 8 8s-3.6 8-8 8H90V74Z" fill="#60a5fa" />
  <circle cx="114" cy="54" r="10" fill="#93c5fd" />
</svg>
