<svg width="1536" height="1024" version="1.1" xmlns="http://www.w3.org/2000/svg" desc="Created with imagetracer.js version 1.2.6" ><path fill="rgb(104,192,236)" stroke="rgb(104,192,236)" stroke-width="1" opacity="0.9058823529411765" d="M 730.5 339 L 1009.5 339 Q 1010.5 339 1010 343.5 L 1005 365.5 L 993 394.5 Q 983.9 410.4 970.5 422 L 952.5 434 L 935.5 440 L 918.5 443 L 758.5 443 L 745.5 447 L 735 455.5 L 729 468.5 L 729 493 L 632 493 L 632 439.5 L 633 438.5 L 634 424.5 L 640 404.5 Q 650.2 379.7 669.5 364 Q 682.2 352.7 699.5 346 L 716.5 341 L 729.5 340 L 730.5 339 Z " /><path fill="rgb(104,192,236)" stroke="rgb(104,192,236)" stroke-width="1" opacity="0.9058823529411765" d="M 971.5 463 Q 977.2 461.2 975 467.5 Q 965.8 516.3 933.5 542 Q 922.5 551 908.5 557 L 889.5 562 Q 883.3 560.3 881.5 563 L 793.5 563 L 794.5 561 L 805 551.5 L 815 531.5 L 817 520.5 L 817 501.5 L 813 484.5 L 805 469.5 L 805 467 L 945.5 467 L 946.5 466 L 964.5 465 L 971.5 463 Z " /><path fill="rgb(104,192,236)" stroke="rgb(104,192,236)" stroke-width="1" opacity="0.9058823529411765" d="M 788.5 494 Q 790.8 493.3 790 495.5 L 796 508.5 L 797 513.5 L 797 529.5 Q 793.8 545.8 782.5 554 L 767.5 563 L 740.5 573 L 733 579.5 L 729 588.5 L 729 652 L 537 652 L 537 584.5 L 540 567.5 L 546 552.5 Q 554.8 536.3 568.5 525 L 587.5 514 L 610.5 508 L 619.5 508 L 620.5 507 L 745.5 507 L 746.5 506 L 756.5 506 L 771.5 503 L 779.5 500 L 788.5 494 Z " /><path fill="rgb(106,111,113)" stroke="rgb(106,111,113)" stroke-width="1" opacity="0" d="M 0 0 L 1536 0 L 1536 1024 L 0 1024 L 0 0 Z M 987 191 L 983 193 L 977 193 L 971 195 L 968 194 L 965 193 L 961 193 L 958 195 L 949 197 L 942 195 L 932 195 L 925 200 L 918 198 Q 906 197 901 202 L 894 200 L 887 200 L 885 200 L 879 203 Q 874 202 875 205 L 869 204 L 860 204 L 855 207 Q 852 206 853 209 Q 848 210 846 207 L 834 211 L 830 214 Q 823 215 821 212 Q 809 211 805 217 Q 800 218 799 216 L 790 216 L 780 222 L 772 222 L 771 221 L 758 226 Q 753 227 752 225 L 749 225 L 734 232 L 729 231 L 723 231 Q 714 234 710 240 Q 705 241 704 239 Q 695 240 691 246 Q 688 245 689 248 L 686 250 Q 681 251 680 248 L 676 248 L 661 262 L 656 261 L 651 262 L 636 273 Q 629 271 628 274 Q 625 273 626 276 L 622 278 L 621 281 Q 618 280 619 283 L 613 287 L 609 287 L 605 289 L 594 297 Q 591 296 592 299 L 589 299 L 588 302 Q 585 301 586 304 L 583 305 L 580 312 L 562 325 Q 563 327 561 326 L 556 333 L 552 336 L 550 339 L 546 342 L 543 342 L 539 346 L 539 349 Q 534 352 534 359 L 528 362 L 526 368 Q 523 367 524 370 L 522 370 L 522 373 L 518 373 L 510 383 Q 511 386 509 385 L 507 388 L 504 389 L 503 392 Q 498 391 499 394 L 494 395 L 489 402 L 486 404 L 486 407 Q 481 405 482 409 Q 477 408 475 412 Q 472 411 473 414 L 461 421 L 457 421 Q 455 424 452 423 L 452 425 L 449 424 Q 447 427 446 425 L 445 427 L 442 428 L 441 432 L 433 434 L 428 440 Q 425 439 426 442 L 422 442 Q 423 445 420 444 L 415 452 Q 416 454 413 453 Q 411 456 410 454 L 409 456 L 401 458 L 392 468 L 390 471 Q 389 473 388 471 Q 380 469 378 474 Q 379 476 376 475 L 376 477 L 374 478 Q 371 477 372 480 L 370 481 L 368 484 L 366 483 Q 363 482 364 485 L 362 487 Q 357 486 356 489 L 354 488 L 351 489 L 348 489 L 346 493 L 344 493 L 343 496 Q 344 498 341 497 L 340 500 L 336 498 Q 334 500 330 499 L 328 502 Q 323 501 320 506 Q 321 509 318 508 L 318 506 L 316 509 Q 317 511 315 510 L 313 510 L 310 511 L 308 510 Q 304 509 305 512 L 302 510 L 300 513 L 298 512 L 296 515 Q 297 517 294 516 L 292 521 L 292 522 L 287 522 L 287 520 L 286 522 L 279 520 L 279 522 L 274 521 L 273 525 Q 274 528 271 527 L 268 528 L 267 527 Q 266 524 265 526 L 264 524 L 263 524 L 263 527 Q 257 525 259 530 L 257 531 L 256 529 L 253 531 L 253 534 Q 250 533 251 536 Q 249 538 244 537 Q 241 534 242 526 L 241 537 L 239 538 Q 234 539 233 537 Q 234 534 231 535 L 231 532 L 230 532 L 229 528 Q 226 527 227 530 L 225 531 L 224 528 L 221 529 L 221 527 L 220 529 L 219 528 L 217 532 L 217 539 Q 214 538 215 542 Q 212 543 213 540 L 210 540 L 210 538 L 206 537 L 201 537 Q 202 542 199 542 L 199 546 L 195 545 L 194 548 L 191 547 L 188 549 L 186 549 L 186 547 L 180 547 L 180 549 L 179 546 L 178 546 Q 180 551 174 549 L 175 552 L 175 562 L 174 552 L 171 553 Q 170 556 173 558 L 173 567 L 167 570 L 167 573 L 162 573 L 161 570 Q 159 563 162 562 L 161 561 L 161 548 L 159 546 L 159 544 L 154 544 L 153 547 L 153 566 Q 150 565 151 569 L 147 570 Q 143 571 145 567 Q 141 568 140 566 L 141 561 Q 140 557 143 558 L 141 539 L 138 538 L 134 538 L 134 524 L 127 524 L 126 528 Q 127 530 124 529 L 124 536 L 125 537 Q 126 543 124 543 L 121 544 L 115 543 L 115 532 L 114 531 Q 116 524 112 525 L 112 518 L 110 518 L 110 510 L 112 509 L 112 501 L 114 500 L 113 498 Q 114 493 112 494 L 110 491 L 109 491 L 109 494 L 106 495 L 106 520 L 104 520 L 105 524 L 105 534 L 102 534 L 102 547 L 100 550 Q 101 558 99 562 Q 96 563 97 559 L 96 559 Q 97 563 94 562 L 94 571 L 99 571 L 100 578 Q 97 580 91 579 Q 92 572 89 569 Q 88 563 90 562 L 89 558 L 89 548 L 91 547 L 91 544 L 89 542 L 87 535 L 86 520 L 83 521 L 82 525 Q 83 528 80 527 L 81 533 L 80 536 Q 82 537 81 542 L 78 544 L 80 545 L 79 546 L 78 566 L 77 567 L 78 572 Q 79 579 76 582 L 76 603 L 75 604 Q 76 607 73 606 L 73 615 L 72 616 Q 70 622 75 620 L 74 627 Q 77 630 76 638 L 71 639 Q 70 643 73 645 L 72 659 L 71 658 L 66 658 L 66 647 L 62 647 L 63 644 L 63 641 L 65 641 L 65 631 L 68 631 L 67 615 L 65 607 L 65 583 L 66 582 L 66 568 L 65 567 L 65 560 L 63 559 Q 62 551 65 547 L 63 542 L 63 535 L 65 534 L 64 518 Q 60 517 61 520 L 57 520 L 56 544 L 54 546 Q 53 550 57 548 L 59 553 L 57 558 L 57 564 L 54 577 Q 52 582 56 581 L 56 593 L 54 595 L 56 612 L 56 614 L 56 624 L 55 625 Q 56 627 53 626 Q 52 629 55 628 L 56 645 L 56 647 L 57 650 L 57 666 L 56 667 Q 57 669 54 668 L 54 677 L 56 680 L 56 689 L 57 690 Q 59 695 56 697 Q 55 701 58 700 L 59 708 L 60 708 Q 58 702 64 704 Q 62 690 68 684 L 69 667 L 70 676 L 70 683 L 72 683 L 74 683 L 75 699 L 78 708 L 78 715 L 80 715 L 80 724 Q 83 726 84 731 L 85 728 Q 84 723 88 725 L 88 719 L 87 718 Q 86 713 89 713 Q 87 706 91 707 L 93 703 L 96 703 Q 94 708 98 707 L 99 714 L 99 716 L 102 717 L 102 731 Q 107 730 105 734 L 108 734 L 109 737 L 110 734 L 110 737 Q 114 738 112 733 L 117 734 Q 119 733 118 736 L 121 736 L 122 738 L 122 737 L 123 737 Q 122 740 126 738 L 128 746 Q 127 748 130 747 L 130 749 L 134 749 L 134 746 Q 137 747 136 744 L 139 744 L 141 744 L 147 741 L 150 741 L 151 756 L 156 760 Q 155 764 160 762 Q 159 757 163 755 Q 168 754 170 756 Q 172 755 171 758 Q 174 759 174 756 L 181 756 L 183 751 L 184 756 Q 183 758 186 757 L 186 759 L 189 760 L 190 760 L 191 762 L 196 762 L 197 765 L 201 767 Q 207 769 206 765 Q 211 763 210 768 L 213 769 L 213 774 L 215 777 L 219 778 L 229 778 L 229 780 L 234 782 L 239 781 L 241 784 Q 246 782 244 788 L 246 787 L 248 788 Q 252 789 254 787 L 255 787 L 256 789 L 261 789 L 262 792 L 263 790 L 263 792 L 266 791 L 267 794 L 267 792 L 269 792 L 271 791 L 278 794 L 279 792 L 281 798 L 287 799 L 288 802 L 290 799 Q 294 800 292 796 L 295 796 L 296 800 Q 295 802 298 801 L 298 803 L 301 805 Q 300 807 303 806 L 305 803 L 308 804 L 310 803 L 315 804 L 317 799 L 320 798 L 328 798 Q 327 801 330 800 L 331 804 L 334 803 Q 337 804 336 801 L 340 799 Q 342 800 341 797 L 346 797 Q 347 801 352 800 L 354 803 Q 356 802 355 805 L 358 806 L 368 805 L 370 805 L 370 803 L 374 805 L 374 807 L 376 807 L 376 809 L 383 809 L 385 804 L 388 805 L 392 804 L 394 804 Q 397 803 396 806 L 399 806 L 401 805 L 403 811 L 406 802 L 409 803 Q 411 804 410 800 L 416 801 L 421 798 L 427 801 Q 429 800 428 803 L 431 804 L 441 800 L 443 801 L 446 800 L 447 801 Q 446 798 453 799 L 456 800 L 462 800 L 462 797 L 468 794 Q 472 793 474 796 L 475 795 L 483 795 L 484 793 Q 486 788 495 790 L 497 793 L 500 790 L 512 789 L 517 785 L 522 786 Q 528 788 530 785 Q 532 786 531 783 L 535 782 Q 537 783 536 780 L 541 779 L 544 780 L 555 778 L 564 771 L 573 770 L 575 768 Q 577 769 576 766 L 581 765 L 583 761 L 588 760 L 592 761 Q 594 762 593 759 L 599 758 Q 601 759 600 755 L 604 754 L 607 750 Q 610 751 609 748 Q 612 749 614 746 Q 620 748 622 745 Q 624 746 623 743 L 628 742 L 635 737 L 646 736 L 650 733 Q 652 734 651 731 L 660 725 L 670 723 L 678 712 L 681 710 L 682 708 L 685 706 L 692 697 L 695 682 L 695 680 L 696 666 L 700 666 L 709 661 L 716 661 L 722 658 Q 725 659 724 657 L 727 656 Q 730 657 728 653 L 732 653 L 732 651 L 739 647 L 749 625 L 751 625 L 754 618 L 759 622 Q 761 621 760 624 L 767 628 L 787 632 L 792 631 L 793 632 L 807 632 L 817 635 Q 823 637 825 634 Q 826 636 831 635 L 835 638 Q 839 639 841 637 L 854 637 L 858 639 L 879 639 L 880 638 Q 886 636 888 639 L 899 637 L 902 638 L 910 638 L 917 634 L 932 633 L 944 629 L 949 629 L 951 627 L 958 625 L 969 623 L 979 616 L 988 615 L 992 613 L 1005 604 L 1015 603 L 1019 600 Q 1022 601 1021 598 L 1029 592 L 1040 588 L 1043 586 L 1049 578 L 1051 575 L 1062 566 L 1063 563 L 1071 559 L 1075 553 Q 1083 543 1094 538 L 1100 527 L 1108 517 L 1109 517 L 1109 514 Q 1112 515 1111 512 L 1115 511 L 1120 504 L 1128 487 L 1131 485 L 1132 481 L 1135 479 L 1135 476 L 1142 465 Q 1141 461 1144 462 L 1148 456 L 1148 453 L 1157 442 Q 1156 438 1159 437 Q 1161 438 1160 436 L 1162 436 Q 1161 433 1165 434 L 1168 423 L 1175 417 L 1178 411 Q 1180 412 1179 409 L 1186 405 L 1188 405 L 1193 386 L 1193 373 L 1194 372 Q 1193 367 1196 368 Q 1194 355 1198 347 L 1198 340 L 1196 338 L 1194 319 L 1192 314 L 1191 295 L 1189 293 L 1188 283 L 1184 282 L 1182 283 L 1180 280 Q 1181 275 1178 276 L 1178 273 L 1176 276 L 1175 274 L 1173 275 L 1169 267 L 1167 265 L 1163 262 Q 1165 255 1161 253 Q 1158 254 1159 252 Q 1158 249 1155 250 Q 1152 249 1153 246 L 1147 242 Q 1144 243 1145 240 L 1143 240 L 1143 238 L 1139 238 L 1137 233 L 1133 230 Q 1134 227 1128 228 L 1126 226 L 1125 226 L 1121 224 L 1118 220 L 1116 221 L 1113 219 Q 1107 221 1108 217 L 1095 215 L 1084 208 L 1080 208 L 1078 208 L 1070 205 L 1066 205 L 1061 201 L 1057 201 L 1055 201 Q 1050 200 1049 203 Q 1043 205 1044 201 Q 1039 201 1037 198 L 1019 197 L 1013 194 L 1002 195 L 1000 195 L 998 196 L 992 192 L 987 191 Z M 34 467 L 36 471 L 37 468 L 34 467 Z M 84 487 L 82 495 L 81 498 L 81 513 L 85 513 L 87 510 Q 88 505 86 504 Q 87 500 84 501 L 85 497 L 85 489 L 84 487 Z M 58 488 L 57 491 L 57 503 L 59 505 L 60 502 L 61 502 Q 60 505 64 503 Q 65 495 62 490 Q 59 491 60 488 L 58 488 Z M 30 494 Q 31 497 28 496 L 30 502 L 30 500 L 33 500 L 33 508 L 36 509 L 37 511 L 38 509 Q 37 505 40 506 L 40 500 Q 43 500 42 496 L 39 496 L 39 504 L 38 503 L 36 503 L 36 496 Q 35 493 30 494 Z M 37 519 L 35 528 L 32 529 L 31 536 L 31 555 L 34 555 L 34 566 L 31 566 L 31 568 Q 33 574 30 576 L 31 596 L 35 597 L 36 597 L 36 591 Q 40 590 38 596 L 39 596 Q 37 590 41 591 Q 42 588 39 589 L 39 579 L 41 578 L 40 575 L 40 565 Q 43 565 42 562 Q 37 560 39 566 L 35 566 L 35 559 L 39 559 L 39 553 L 37 553 L 37 547 L 41 546 L 41 544 L 37 544 L 37 535 L 40 535 L 40 527 L 37 527 L 37 519 Z M 96 543 L 96 546 L 99 547 L 98 545 Q 99 542 96 543 Z M 10 598 L 10 602 L 12 603 Q 14 597 10 598 Z M 33 602 L 31 608 L 31 625 L 34 642 L 34 649 L 31 649 L 31 670 L 30 671 Q 28 677 33 675 L 33 686 L 32 687 L 33 692 L 38 693 L 39 691 Q 41 684 38 683 Q 36 675 41 677 L 42 672 L 42 662 L 39 661 L 38 656 L 38 646 L 40 645 L 41 629 L 42 628 L 41 626 L 41 617 Q 38 617 39 610 L 39 608 L 40 605 L 35 603 L 34 607 L 33 602 Z " /><path fill="rgb(106,111,113)" stroke="rgb(106,111,113)" stroke-width="1" opacity="0" d="M 33.5 535 L 34.5 538 L 36 537.5 L 35.5 540 L 34 539.5 L 33.5 544 L 33.5 535 Z " /><path fill="rgb(106,111,113)" stroke="rgb(106,111,113)" stroke-width="1" opacity="0" d="M 116 548 Q 119.7 546.8 118 552 L 123 552 L 123 559 L 116 559 L 116 548 Z " /><path fill="rgb(106,111,113)" stroke="rgb(106,111,113)" stroke-width="1" opacity="0" d="M 146.5 573 L 147 576 L 150 576.5 L 146.5 579 L 146.5 573 Z " /><path fill="rgb(106,111,113)" stroke="rgb(106,111,113)" stroke-width="1" opacity="0" d="M 737.5 575 L 736.5 577 L 737.5 575 Z " /><path fill="rgb(106,111,113)" stroke="rgb(106,111,113)" stroke-width="1" opacity="0" d="M 734.5 578 L 733.5 580 L 734.5 578 Z " /><path fill="rgb(106,111,113)" stroke="rgb(106,111,113)" stroke-width="1" opacity="0" d="M 734.5 581 L 735.5 583 L 736 581 L 738 581.5 L 736 585.5 L 739 584.5 Q 739.9 592.1 737 595 L 734 595 Q 735.5 591.3 732.5 592 L 733 593.5 Q 733.7 596.5 730 595 L 729 588.5 L 730 588.5 L 730.5 592 L 732 587.5 L 730 584.5 L 731 584.5 L 731.5 586 L 732 583.5 L 731.5 582 Q 733 584.5 734.5 581 Z " /><path fill="rgb(106,111,113)" stroke="rgb(106,111,113)" stroke-width="1" opacity="0" d="M 93.5 586 Q 96.9 595.1 95 609.5 L 92.5 618 L 92 616 L 90 615.5 L 92 614.5 L 89 614 L 89 606.5 L 91 606 L 91 603.5 L 91 601.5 L 90 596.5 L 91 591 L 93 591 L 93.5 586 Z " /><path fill="rgb(106,111,113)" stroke="rgb(106,111,113)" stroke-width="1" opacity="0" d="M 627.5 652 L 632 652.5 L 627.5 653 L 627.5 652 Z " /><path fill="rgb(119,138,137)" stroke="rgb(119,138,137)" stroke-width="1" opacity="0" d="M 986.5 191 L 991.5 192 L 997.5 196 L 999.5 195 L 1001.5 195 L 1012.5 194 L 1018.5 197 L 1036.5 198 Q 1038.7 201.5 1044 201 Q 1042.7 204.7 1048.5 203 Q 1049.5 200 1054.5 201 L 1056.5 201 L 1060.5 201 L 1065.5 205 L 1069.5 205 L 1077.5 208 L 1079.5 208 L 1083.5 208 L 1094.5 215 L 1108 217 Q 1106.7 220.7 1112.5 219 L 1115.5 221 L 1118 220 L 1120.5 224 L 1124.5 226 L 1126 225.5 L 1127.5 228 Q 1133.6 226.8 1133 229.5 L 1137 232.5 L 1139 238 L 1143 238 L 1143 240 L 1145 240 Q 1143.9 242.7 1146.5 242 L 1153 245.5 Q 1152.3 249.3 1154.5 250 Q 1158.3 249.3 1159 251.5 Q 1158.3 253.8 1160.5 253 Q 1164.5 254.5 1163 261.5 L 1166.5 265 L 1169 266.5 L 1172.5 275 L 1175 274 L 1175.5 276 L 1177.5 273 L 1178 276 Q 1181.3 274.7 1180 279.5 L 1181.5 283 L 1183.5 282 L 1188 283 L 1189 292.5 L 1191 294.5 L 1192 313.5 L 1194 318.5 L 1196 337.5 L 1198 339.5 L 1198 346.5 Q 1194.3 355 1196 368 Q 1192.7 366.7 1194 371.5 L 1193 372.5 L 1193 385.5 L 1188 405 L 1185.5 405 L 1179 409 Q 1180.1 411.7 1177.5 411 L 1175 417 L 1168 422.5 L 1165 434 Q 1161.2 432.5 1162 435.5 L 1160 435.5 Q 1160.8 437.8 1158.5 437 Q 1156.3 437.8 1157 441.5 L 1148 452.5 L 1148 455.5 L 1143.5 462 Q 1140.9 461.2 1142 464.5 L 1135 475.5 L 1135 479 L 1132 480.5 L 1131 485 L 1128 486.5 L 1120 503.5 L 1114.5 511 L 1111 512 Q 1112 515 1109 514 L 1109 517 L 1107.5 517 L 1100 526.5 L 1094 538 Q 1082.5 542.8 1075 552.5 L 1070.5 559 L 1063 563 L 1061.5 566 L 1051 574.5 L 1049 577.5 L 1042.5 586 L 1039.5 588 L 1028.5 592 L 1021 598 Q 1022.3 601 1018.5 600 L 1014.5 603 L 1004.5 604 L 991.5 613 L 987.5 615 L 978.5 616 L 968.5 623 L 957.5 625 L 950.5 627 L 948.5 629 L 943.5 629 L 931.5 633 L 916.5 634 L 909.5 638 L 901.5 638 L 898.5 637 L 887.5 639 Q 885.8 636.3 879.5 638 L 878.5 639 L 857.5 639 L 853.5 637 L 840.5 637 Q 839.3 639.3 834.5 638 L 830.5 635 Q 825.8 636.3 824.5 634 Q 822.8 636.8 816.5 635 L 806.5 632 L 792.5 632 L 791.5 631 L 786.5 632 L 766.5 628 L 760 623.5 Q 760.8 621.3 758.5 622 L 754 618.5 L 754 615.5 L 759 602.5 L 763.5 597 L 766.5 595 Q 771.8 587.8 782.5 586 Q 785.1 589.4 792.5 588 L 799.5 585 L 805.5 585 L 809.5 588 L 823.5 589 L 827.5 587 L 839.5 590 L 840.5 589 L 855.5 588 L 861.5 590 L 870.5 588 L 891.5 588 L 895.5 586 L 908.5 585 L 924.5 578 L 933.5 577 L 949.5 568 L 956.5 567 L 981 550 Q 979.9 547.3 982.5 548 L 997 536.5 Q 996.3 534.3 998.5 535 L 1002 530 L 1004 530 Q 1002.9 527.3 1005.5 528 L 1013 522 L 1019.5 514 Q 1021.8 514.8 1021 512.5 L 1025 507 L 1028 505.5 L 1031.5 500 Q 1033.8 500.8 1033 498.5 L 1037 494.5 L 1042 480.5 L 1046 474.5 L 1049 463.5 L 1052 459.5 L 1054 450.5 L 1061 437.5 L 1061 434 Q 1064.7 435.4 1063 429.5 L 1077 393.5 Q 1076.2 387.2 1079 384.5 L 1079 364.5 L 1080 359.5 Q 1077.8 358.3 1079 353.5 L 1079 351.5 L 1079 344.5 L 1071 330.5 L 1071 328 Q 1068 329.3 1069 325.5 L 1052 304 L 1041 295.5 Q 1041.8 293.3 1039.5 294 L 1035.5 290 Q 1021 287.5 1012.5 279 Q 1007.2 279.8 1005.5 277 L 997.5 277 L 986.5 271 L 971.5 271 Q 966.3 266.2 954.5 268 L 947.5 270 L 939.5 266 L 929.5 266 Q 927.2 268.7 921.5 268 Q 917.2 264.3 907.5 266 L 901.5 269 L 898.5 269 Q 895.2 265.8 887.5 267 L 876.5 270 L 860.5 270 L 853.5 273 L 849.5 273 L 842.5 271 Q 840.7 273.8 834.5 272 L 829.5 275 L 825.5 275 L 821.5 274 L 819.5 275 Q 818.3 272.7 813.5 274 Q 808.3 278.3 799.5 279 L 797.5 279 L 788.5 280 L 779.5 285 L 771.5 286 L 763.5 290 L 754.5 292 Q 753 289.5 747.5 291 L 732.5 298 L 723.5 298 L 708.5 307 L 699.5 307 L 692 313.5 Q 692.8 315.8 690.5 315 L 683.5 320 L 677.5 320 L 673 323.5 L 669.5 328 Q 667.3 327.3 668 329.5 L 661.5 335 L 649 341 L 639 354.5 L 640 355.5 L 636.5 359 Q 634.3 358.3 635 360.5 L 630 363 L 616 389.5 L 608 409.5 L 606 418.5 Q 602.2 419.8 603 424 Q 600.3 422.9 601 425.5 L 599 430 Q 596.3 428.9 597 431.5 L 588 443 L 581 445 L 580.5 447 L 578.5 447 Q 570.8 449.8 566.5 456 L 559.5 458 L 555.5 457 L 552.5 458 L 546.5 460 L 537.5 467 L 519 476 L 516.5 480 L 510.5 483 L 497 494.5 L 488.5 505 L 482 510.5 L 479.5 515 Q 477.3 514.3 478 516.5 L 470 528.5 L 470 531 L 468 531 Q 469.1 533.7 466.5 533 L 459 539.5 L 448 559.5 L 447 565.5 L 443 573.5 L 443 579.5 L 441 587.5 L 441 597.5 Q 438 600.5 439 607.5 L 440 608.5 L 441 626.5 Q 444.3 629.7 444 636.5 L 446 638.5 L 450 649.5 L 459 663 L 470 668 L 470 669.5 L 478.5 678 L 495 686 L 495 688 L 497 688 Q 495.9 690.7 498.5 690 Q 504.4 695.1 515.5 695 L 525.5 701 L 543.5 702 Q 546.8 705.2 554.5 704 Q 558.5 701 565.5 701 L 566.5 702 L 574.5 702 L 587.5 696 L 599.5 695 L 606 691 Q 604.9 688.3 607.5 689 L 614.5 682 L 618.5 681 L 629 670.5 L 634.5 659 L 639.5 658 L 642.5 659 L 644.5 658 L 663.5 662 L 670.5 665 L 678.5 666 Q 680.3 663.3 686.5 665 L 687.5 666 L 696 666 L 695 679.5 L 695 681.5 L 692 696.5 L 685 706 L 682 707.5 L 680.5 710 L 677.5 712 L 669.5 723 L 659.5 725 L 651 731 Q 652.1 733.7 649.5 733 L 645.5 736 L 634.5 737 L 627.5 742 L 623 743 Q 624.1 745.7 621.5 745 Q 619.7 747.8 613.5 746 Q 612.4 748.8 609 748 Q 610.3 751 606.5 750 L 603.5 754 L 600 755 Q 601.5 758.8 598.5 758 L 593 759 Q 594.1 761.7 591.5 761 L 587.5 760 L 583 761 L 580.5 765 L 576 766 Q 577.1 768.7 574.5 768 L 572.5 770 L 563.5 771 L 554.5 778 L 543.5 780 L 540.5 779 L 536 780 Q 537.1 782.7 534.5 782 L 531 783 Q 532.1 785.7 529.5 785 Q 527.8 787.8 521.5 786 L 516.5 785 L 511.5 789 L 499.5 790 L 496.5 793 L 494.5 790 Q 486 788 484 792.5 L 482.5 795 L 474.5 795 L 473.5 796 Q 472.1 793.4 467.5 794 L 462 797 L 462 800 L 455.5 800 L 452.5 799 Q 446.4 797.8 447 800.5 L 445.5 800 L 442.5 801 L 440.5 800 L 430.5 804 L 428 802.5 Q 428.8 800.3 426.5 801 L 420.5 798 L 415.5 801 L 410 800 Q 411.5 803.8 408.5 803 L 406 802 L 402.5 811 L 401 805 L 398.5 806 L 396 805.5 Q 396.8 802.9 393.5 804 L 391.5 804 L 387.5 805 L 385 804 L 383 809 L 376 809 L 376 807 L 374 807 L 374 805 L 370 803 L 369.5 805 L 367.5 805 L 357.5 806 L 355 805 Q 356.1 802.3 353.5 803 L 352 800 Q 347.4 800.6 345.5 797 L 341 797 Q 342.1 799.7 339.5 799 L 336 801 Q 337.3 804 333.5 803 L 331 804 L 330 800 Q 326.9 800.8 327.5 798 L 319.5 798 L 317 799 L 315 804 L 309.5 803 L 307.5 804 L 304.5 803 L 303 806 Q 300.3 807.1 301 804.5 L 298 803 L 298 801 Q 295.3 802.1 296 799.5 L 295 796 L 292 796 Q 293.7 800.1 289.5 799 L 287.5 802 L 287 799 L 281 798 L 278.5 792 L 277.5 794 L 270.5 791 L 268.5 792 L 267 791.5 L 266.5 794 L 265.5 791 L 263 792 L 262.5 790 L 261.5 792 L 261 789 L 255.5 789 L 255 787 L 253.5 787 Q 252.2 789.3 247.5 788 L 245.5 787 L 244 787.5 Q 245.8 782.3 240.5 784 L 238.5 781 L 233.5 782 L 229 780 L 228.5 778 L 218.5 778 L 215 777 L 213 773.5 L 213 769 L 210 767.5 Q 211.2 762.9 206 765 Q 207.4 769 200.5 767 L 197 764.5 L 195.5 762 L 190.5 762 L 190 760 L 188.5 760 L 186 759 L 186 757 Q 183.3 758.1 184 755.5 L 182.5 751 L 180.5 756 L 173.5 756 Q 174.1 758.8 171 758 Q 172.1 755.3 169.5 756 Q 168 753.5 162.5 755 Q 159.2 757 160 762 Q 154.8 764.1 156 759.5 L 151 755.5 L 150 741 L 146.5 741 L 140.5 744 L 138.5 744 L 136 744 Q 137 747 134 746 L 134 749 L 130 749 L 130 747 Q 127.3 748.1 128 745.5 L 126 738 Q 122.2 739.5 123 736.5 L 122 736.5 L 121.5 738 L 121 736 L 118 736 Q 119.1 733.3 116.5 734 L 112 733 Q 113.7 738.2 110 737 L 109.5 734 L 108.5 737 L 108 734 L 105 734 Q 106.5 729.5 102 731 L 102 716.5 L 99 716 L 99 713.5 L 98 707 Q 94.3 708.2 96 703 L 92.5 703 L 91 707 Q 87 705.6 89 712.5 Q 86.3 713.3 87 717.5 L 88 718.5 L 88 725 Q 83.9 723.3 85 727.5 L 83.5 731 Q 83.4 725.6 80 723.5 L 80 715 L 78 714.5 L 78 707.5 L 75 698.5 L 73.5 683 L 71.5 683 L 70 682.5 L 70 675.5 L 68.5 667 L 68 683.5 Q 62.2 690.4 64 704 Q 58.4 701.8 60 707.5 L 59 707.5 L 58 700 Q 54.7 701.3 56 696.5 Q 58.5 695 57 689.5 L 56 688.5 L 56 679.5 L 54 676.5 L 54 668 Q 56.7 669.1 56 666.5 L 57 665.5 L 57 649.5 L 56 646.5 L 56 644.5 L 55 628 Q 52 629 53 626 Q 55.7 627.1 55 624.5 L 56 623.5 L 56 613.5 L 56 611.5 L 54 594.5 L 56 592.5 L 56 581 Q 52.3 582.4 54 576.5 L 57 563.5 L 57 557.5 L 59 552.5 L 57 548 Q 52.9 549.7 54 545.5 L 56 543.5 L 57 520 L 61 520 Q 59.9 516.7 64 518 L 65 534 L 63 534.5 L 63 541.5 L 65 546.5 Q 62.1 551.4 63 559 L 65 559.5 L 65 566.5 L 66 567.5 L 66 581.5 L 65 582.5 L 65 606.5 L 67 614.5 L 68 631 L 65 631 L 65 640.5 L 63 641 L 63 643.5 L 62 647 L 66 647 L 66 658 L 70.5 658 L 72 658.5 L 73 644.5 Q 70 643.3 71 639 L 76 638 Q 77.3 630.4 74 626.5 L 75 620 Q 70.1 621.8 72 615.5 L 73 614.5 L 73 606 Q 76 607.3 75 603.5 L 76 602.5 L 76 581.5 Q 79.4 578.9 78 571.5 L 77 566.5 L 78 565.5 L 79 545.5 L 80 544.5 L 78 543.5 L 81 541.5 Q 82.3 536.7 80 535.5 L 81 532.5 L 80 527 Q 83 528.3 82 524.5 L 83 521 L 85.5 520 L 87 534.5 L 89 541.5 L 91 543.5 L 91 547 L 89 547.5 L 89 557.5 L 90 561.5 Q 87.5 563 89 568.5 Q 91.9 572.4 91 579 Q 97.2 579.9 100 578 L 99 571 L 94 571 L 94 562 Q 97.3 563.3 96 558.5 L 97 558.5 Q 95.7 563.3 99 562 Q 100.7 557.5 100 549.5 L 102 546.5 L 102 534 L 105 533.5 L 105 523.5 L 104 520 L 106 519.5 L 106 494.5 L 109 494 L 109 490.5 L 110 490.5 L 111.5 494 Q 114.5 493.1 113 497.5 L 114 500 L 112 500.5 L 112 508.5 L 110 509.5 L 110 518 L 112 518 L 112 524.5 Q 115.5 523.5 114 530.5 L 115 531.5 L 115 543 L 120.5 544 L 123.5 543 Q 126.5 543.5 125 536.5 L 124 535.5 L 124 529 Q 126.7 530.1 126 527.5 L 127 524 L 134 524 L 134 537.5 L 137.5 538 L 141 539 L 143 558 Q 140 556.8 141 560.5 L 140 565.5 Q 141.2 568 145 567 Q 143.5 570.8 146.5 570 L 151 569 Q 150 564.8 153 565.5 L 153 546.5 L 154 544 L 159 544 L 159 545.5 L 161 547.5 L 161 560.5 L 162 561.5 Q 159.3 563.3 161 569.5 L 162 573 L 167 573 L 167 569.5 L 173 566.5 L 173 557.5 Q 170.3 556.4 171 553 L 173.5 552 L 174.5 562 L 175 551.5 L 174 549 Q 179.6 551.2 178 545.5 L 179 545.5 L 179.5 549 L 180 547 L 185.5 547 L 186 549 L 187.5 549 L 190.5 547 L 194 548 L 194.5 545 L 199 546 L 199 541.5 Q 202.2 542.3 201 537 L 205.5 537 L 210 538 L 210 540 L 213 540 Q 212 543 215 542 Q 214 537.8 217 538.5 L 217 531.5 L 218.5 528 L 220 528.5 L 220.5 527 L 221 529 L 223.5 528 L 224.5 531 L 227 530 Q 226 527 229 528 L 229.5 532 L 231 531.5 L 231 535 Q 233.7 533.9 233 536.5 Q 234 539 238.5 538 L 241 537 L 241.5 526 Q 240.9 534 244 537 Q 249.4 538.5 251 535.5 Q 250.3 532.9 253 534 L 253 530.5 L 256 529 L 256.5 531 L 259 530 Q 257.4 525.1 263 527 L 263 523.5 L 264 523.5 L 264.5 526 Q 265.8 523.8 267 526.5 L 267.5 528 L 270.5 527 Q 274.3 528.3 273 524.5 L 274 521 L 278.5 522 L 279 520 L 285.5 522 L 286.5 520 L 287 522 L 292 522 L 292 520.5 L 294 516 Q 296.7 517.1 296 514.5 L 297.5 512 L 300 513 L 301.5 510 L 305 512 Q 303.8 509 307.5 510 L 309.5 511 L 312.5 510 L 314.5 510 Q 316.8 510.8 316 508.5 L 317.5 506 L 318 508 Q 321 509.3 320 505.5 Q 322.7 501.4 328 502 L 329.5 499 Q 334.2 500.3 335.5 498 L 339.5 500 L 341 497 Q 343.7 498.1 343 495.5 L 344 493 L 346 493 L 348 489 L 350.5 489 L 353.5 488 L 355.5 489 Q 356.9 486.4 361.5 487 L 364 484.5 Q 363.3 482.3 365.5 483 L 368 484 L 369.5 481 L 372 479.5 Q 371.3 477.3 373.5 478 L 376 477 L 376 475 Q 378.7 476.1 378 473.5 Q 379.8 469.3 387.5 471 Q 388.8 473.2 390 470.5 L 392 467.5 L 400.5 458 L 409 456 L 409.5 454 Q 411 456.5 412.5 453 Q 415.8 454.1 415 451.5 L 420 444 Q 423 445 422 442 L 426 442 Q 424.9 439.3 427.5 440 L 432.5 434 L 441 432 L 442 428 L 445 426.5 L 445.5 425 Q 447 427.5 448.5 424 L 451.5 425 L 452 423 Q 455.4 423.8 456.5 421 L 460.5 421 L 473 414 Q 471.9 411.3 474.5 412 Q 476.6 408.1 482 409 Q 480.8 405.3 486 407 L 486 403.5 L 489 402 L 493.5 395 L 499 394 Q 497.7 390.7 502.5 392 L 504 389 L 507 387.5 L 508.5 385 Q 511.1 385.8 510 382.5 L 517.5 373 L 522 373 L 522 370 L 524 370 Q 522.9 367.3 525.5 368 L 528 362 L 534 359 Q 534.1 351.9 539 348.5 L 539 345.5 L 542.5 342 L 545.5 342 L 550 339 L 551.5 336 L 556 332.5 L 560.5 326 Q 562.8 326.8 562 324.5 L 580 311.5 L 583 305 L 586 303.5 Q 585.3 301.3 587.5 302 L 589 299 L 592 299 Q 590.9 296.3 593.5 297 L 604.5 289 L 608.5 287 L 612.5 287 L 619 283 Q 617.9 280.3 620.5 281 L 622 278 L 626 275.5 Q 625.3 273.3 627.5 274 Q 629.2 271.2 635.5 273 L 650.5 262 L 655.5 261 L 660.5 262 L 675.5 248 L 679.5 248 Q 680.5 251 685.5 250 L 689 248 Q 687.9 245.3 690.5 246 Q 694.7 240.2 703.5 239 Q 704.7 241.3 709.5 240 Q 714.2 233.7 722.5 231 L 728.5 231 L 733.5 232 L 748.5 225 L 751.5 225 Q 752.8 227.3 757.5 226 L 770.5 221 L 771.5 222 L 779.5 222 L 789.5 216 L 798.5 216 Q 799.8 218.3 804.5 217 Q 808.8 210.8 820.5 212 Q 823.2 214.8 829.5 214 L 833.5 211 L 845.5 207 Q 847.8 210 853 209 Q 851.9 206.3 854.5 207 L 859.5 204 L 868.5 204 L 875 205 Q 873.7 201.7 878.5 203 L 884.5 200 L 886.5 200 L 893.5 200 L 900.5 202 Q 905.8 196.8 917.5 198 L 924.5 200 L 931.5 195 L 941.5 195 L 948.5 197 L 957.5 195 L 960.5 193 L 964.5 193 L 967.5 194 L 970.5 195 L 976.5 193 L 982.5 193 L 986.5 191 Z M 116 548 L 116 559 L 123 559 L 123 552 L 118 552 Q 120 547 116 548 Z M 147 573 L 147 579 L 150 577 L 147 576 L 147 573 Z M 94 586 L 93 591 L 91 591 L 90 597 L 91 602 L 91 604 L 91 606 L 89 607 L 89 614 L 92 615 L 90 616 L 92 616 L 93 618 L 95 610 Q 97 595 94 586 Z " /><path fill="rgb(119,138,137)" stroke="rgb(119,138,137)" stroke-width="1" opacity="0" d="M 34 467 L 37 467.5 L 35.5 471 L 34 467 Z " /><path fill="rgb(119,138,137)" stroke="rgb(119,138,137)" stroke-width="1" opacity="0" d="M 83.5 487 L 85 488.5 L 85 496.5 L 84 501 Q 87 499.8 86 503.5 Q 88.3 504.8 87 509.5 L 85 513 L 81 512.5 L 81 497.5 L 82 494.5 L 83.5 487 Z " /><path fill="rgb(119,138,137)" stroke="rgb(119,138,137)" stroke-width="1" opacity="0" d="M 58 488 L 60 488 Q 58.9 490.7 61.5 490 Q 65.3 494.5 64 503 Q 60.3 504.5 61 501.5 L 60 501.5 L 58.5 505 L 57 502.5 L 57 490.5 L 58 488 Z " /><path fill="rgb(119,138,137)" stroke="rgb(119,138,137)" stroke-width="1" opacity="0" d="M 30 494 Q 34.6 492.8 36 495.5 L 36 502.5 L 37.5 503 L 39 503.5 L 39 496 L 42 496 Q 43 500.3 40 499.5 L 40 506 Q 37 504.8 38 508.5 L 36.5 511 L 36 509 L 33 507.5 L 33 500 L 30 500 L 29.5 502 L 28 496 Q 31 497 30 494 Z " /><path fill="rgb(119,138,137)" stroke="rgb(119,138,137)" stroke-width="1" opacity="0" d="M 36.5 519 L 37 527 L 40 527 L 40 535 L 37 535 L 37 544 L 41 544 L 41 545.5 L 37 547 L 37 552.5 L 39 553 L 39 559 L 35 559 L 35 566 L 39 566 Q 37.1 560.4 42 562 Q 42.8 565.1 40 564.5 L 40 574.5 L 41 578 L 39 578.5 L 39 589 Q 42 588 41 591 Q 37.3 589.6 39 595.5 L 38 595.5 Q 39.7 589.6 36 591 L 36 596.5 L 34.5 597 L 31 596 L 30 575.5 Q 32.8 573.8 31 567.5 L 30.5 566 L 34 566 L 34 555 L 31 554.5 L 31 535.5 L 32 529 L 35 527.5 L 36.5 519 Z M 34 535 L 34 544 L 34 540 L 36 540 L 36 538 L 35 538 L 34 535 Z " /><path fill="rgb(119,138,137)" stroke="rgb(119,138,137)" stroke-width="1" opacity="0" d="M 96 543 Q 98.7 541.9 98 544.5 L 99 547 L 96 545.5 L 96 543 Z " /><path fill="rgb(119,138,137)" stroke="rgb(119,138,137)" stroke-width="1" opacity="0" d="M 9.5 598 Q 14.1 596.6 12 602.5 L 10 601.5 L 9.5 598 Z " /><path fill="rgb(119,138,137)" stroke="rgb(119,138,137)" stroke-width="1" opacity="0" d="M 32.5 602 L 33.5 607 L 34.5 603 L 40 604.5 L 39 607.5 L 39 609.5 Q 37.8 617.4 41 616.5 L 41 625.5 L 42 627.5 L 41 628.5 L 40 645 L 38 645.5 L 38 655.5 L 39 661 L 42 661.5 L 42 671.5 L 41 677 Q 35.8 675.2 38 682.5 Q 40.7 684.3 39 690.5 L 38 693 L 33 692 L 32 686.5 L 33 685.5 L 33 675 Q 28.1 676.8 30 670.5 L 31 669.5 L 31 649 L 34 649 L 34 641.5 L 31 624.5 L 31 607.5 L 32.5 602 Z " /><path fill="rgb(119,138,137)" stroke="rgb(119,138,137)" stroke-width="1" opacity="0" d="M 624.5 652 L 627 652.5 L 624.5 653 L 624.5 652 Z " /><path fill="rgb(124,183,201)" stroke="rgb(124,183,201)" stroke-width="1" opacity="0.011764705882352941" d="M 907.5 266 L 917.5 266 Q 919.8 268.7 925.5 268 Q 929.8 264.3 939.5 266 L 949.5 270 Q 954.9 266.4 965.5 268 L 971.5 271 L 986.5 271 L 997.5 277 L 1005.5 277 Q 1007.2 279.8 1012.5 279 L 1019.5 284 Q 1026 288.5 1035.5 290 L 1041 294 L 1046.5 301 L 1052 304 L 1069 325.5 L 1069 328 Q 1072 326.8 1071 330.5 L 1077 339.5 L 1080 352.5 Q 1077.8 353.8 1079 358.5 L 1080 363.5 L 1079 364.5 L 1079 384.5 Q 1076.2 387.2 1077 393.5 L 1073 404.5 L 1071 406.5 L 1070 413.5 L 1065 423.5 L 1063 434 Q 1059.7 432.7 1061 437.5 L 1054 450.5 L 1052 459.5 L 1049 463.5 L 1046 474.5 Q 1040.6 480.6 1039 490.5 L 1033 500 L 1029 502.5 L 1026.5 507 Q 1024.3 506.3 1025 508.5 L 1021 514 L 1013 520.5 Q 1013.8 522.8 1011.5 522 L 1004 528 L 1004 530 Q 1001.3 528.9 1002 531.5 L 997 535 L 993.5 540 Q 988.8 546.2 981 548 Q 982.1 550.7 979.5 550 L 963.5 563 L 956.5 567 L 949.5 568 L 933.5 577 L 924.5 578 L 908.5 585 L 895.5 586 L 891.5 588 L 870.5 588 L 859.5 590 Q 856.2 586.8 848.5 588 L 838.5 590 L 826.5 587 Q 823.9 590.4 816.5 589 Q 815 586.5 809.5 588 L 805.5 585 L 799.5 585 Q 795.1 589 785.5 588 Q 784.1 585.4 779.5 586 L 765 595 Q 766.1 597.7 763.5 597 L 759 602.5 L 750.5 625 L 749 624.5 L 739 647 L 732 651 L 731.5 653 L 729 652.5 L 729 592.5 L 731 583.5 L 735 577 L 747.5 570 L 755.5 568 L 775.5 559 L 789 547.5 Q 795 540.5 797 529.5 L 797 513.5 L 790 494 L 771.5 503 L 756.5 506 L 746.5 506 L 745.5 507 L 620.5 507 L 619.5 508 L 604.5 509 Q 572.8 515.8 556 537.5 Q 542.7 552.7 538 576.5 Q 539.8 582.8 537 584.5 L 537 652 L 623.5 652 L 624.5 653 L 632.5 653 L 633.5 652 L 728 652 L 728 656 L 726.5 656 L 724 656.5 Q 724.8 659.1 721.5 658 L 715.5 661 L 708.5 661 L 699.5 666 L 687.5 666 Q 685.8 663.3 679.5 665 L 676.5 666 L 644.5 658 L 642.5 659 L 638.5 659 Q 634 658 633 660.5 Q 629.5 674.5 618.5 681 L 614.5 682 L 606 689 Q 607.1 691.7 604.5 691 L 596.5 696 L 587.5 696 L 578.5 701 L 566.5 702 L 562.5 701 L 554.5 704 L 547.5 704 L 543.5 702 L 525.5 701 L 515.5 695 Q 503.6 694.7 497 690 L 497 688 L 495 688 Q 496.1 685.3 493.5 686 L 490.5 683 Q 482.8 682.2 478.5 678 L 470 669.5 Q 470.8 667.3 468.5 668 L 465.5 665 L 462.5 665 L 459 663 L 450 649.5 L 446 638.5 L 444 636.5 Q 444.3 629.7 441 626.5 L 439 601.5 L 441 597.5 L 441 587.5 L 445 567.5 L 447 565.5 L 448 559.5 L 452 551.5 L 462.5 536 L 468 533 Q 467 530 470 531 L 470 528.5 L 478 515 L 481 513.5 Q 482.4 507.4 487.5 505 L 495 498.5 L 501.5 490 L 519 477.5 Q 518.3 475.3 520.5 476 L 525.5 472 L 537.5 467 Q 543.7 460.2 553.5 457 L 555.5 457 L 560.5 458 L 566.5 456 Q 571.4 449.4 579.5 446 L 581 446.5 Q 580.2 443.9 583.5 445 L 588 443 L 597 430 Q 599.7 431.1 599 428.5 L 601 424 Q 604 425.3 603 421.5 L 606 418.5 L 608 409.5 L 616 389.5 L 630 363 L 635 360.5 Q 634.3 358.3 636.5 359 L 643 350.5 L 649 341 L 661.5 335 L 668 329.5 Q 667.3 327.3 669.5 328 L 674.5 322 Q 676.8 318.8 683.5 320 L 692 315 L 694.5 311 L 699.5 307 L 708.5 307 L 723.5 298 L 732.5 298 L 747.5 291 L 753.5 291 L 756.5 292 L 771.5 286 L 779.5 285 L 788.5 280 L 798.5 278 L 801.5 279 L 813.5 274 L 818.5 274 L 820.5 275 L 824.5 274 L 829.5 275 L 834.5 272 L 844.5 271 Q 847.4 273.6 853.5 273 L 860.5 270 L 876.5 270 L 881.5 268 L 894.5 267 L 901.5 269 L 907.5 266 Z M 731 339 L 730 340 L 717 341 L 700 346 Q 682 353 670 364 Q 650 380 640 405 L 634 425 L 633 439 L 632 440 L 632 493 L 729 493 L 729 470 L 735 456 L 746 447 L 759 443 L 919 443 L 936 440 L 953 434 L 971 422 Q 984 410 993 395 L 1005 366 L 1010 344 Q 1010 339 1010 339 L 731 339 Z M 972 463 L 965 465 L 947 466 L 946 467 L 805 467 L 805 470 L 813 485 L 817 502 L 817 521 L 815 532 L 805 552 L 795 561 L 794 563 L 882 563 Q 883 560 890 562 L 909 557 Q 923 551 934 542 Q 966 516 975 468 Q 977 461 972 463 Z M 735 581 Q 732 581 732 586 L 732 588 L 730 595 Q 734 596 733 594 L 733 592 Q 736 591 734 595 L 737 595 Q 740 592 739 585 L 736 586 L 738 582 L 736 581 L 735 584 L 735 583 L 735 581 Z " /></svg>