<svg xmlns="http://www.w3.org/2000/svg" width="1536" height="1024" viewBox="0 0 1536 1024" fill="none" role="img" aria-labelledby="title desc">
  <title id="title">Logo programatica Faco Freela</title>
  <desc id="desc">Versao vetorial redesenhada a partir do contorno do logo original.</desc>
  <defs>
    <linearGradient id="top-gradient" x1="632" y1="415.5" x2="1009" y2="415.5" gradientUnits="userSpaceOnUse">
      <stop offset="0" stop-color="#297CF7" />
      <stop offset="0.52" stop-color="#52B0F7" />
      <stop offset="1" stop-color="#C4F5E8" />
    </linearGradient>
    <linearGradient id="bottom-gradient" x1="537" y1="572.5" x2="796" y2="572.5" gradientUnits="userSpaceOnUse">
      <stop offset="0" stop-color="#C5F5E7" />
      <stop offset="0.55" stop-color="#68C7ED" />
      <stop offset="1" stop-color="#3C8BF0" />
    </linearGradient>
    <linearGradient id="right-gradient" x1="794" y1="512.5" x2="974" y2="512.5" gradientUnits="userSpaceOnUse">
      <stop offset="0" stop-color="#48A8F8" />
      <stop offset="1" stop-color="#B9F1E4" />
    </linearGradient>
    <linearGradient id="inner-gradient" x1="632" y1="610" x2="749" y2="610" gradientUnits="userSpaceOnUse">
      <stop offset="0" stop-color="#17317E" />
      <stop offset="0.55" stop-color="#225FD4" />
      <stop offset="1" stop-color="#2F85FF" />
    </linearGradient>
  </defs>
  <path d="M 728 340.039 C 685.749 344.317, 651.076 371.953, 638.096 411.699 C 633.457 425.905, 632 439.370, 632 468.034 L 632 493 680.500 493 L 729 493 728.995 480.750 C 728.991 471.626, 729.438 467.224, 730.745 463.500 C 733.176 456.575, 740.825 449.007, 748.531 445.904 L 754.500 443.500 839 442.899 C 899.319 442.470, 925.074 441.952, 929 441.089 C 937.840 439.147, 949.002 435.104, 956 431.311 C 967.847 424.888, 979.439 414.166, 987.688 402 C 992.941 394.254, 999.611 379.940, 1003.308 368.481 C 1006.794 357.675, 1010.247 341.232, 1009.341 339.750 C 1008.741 338.769, 737.790 339.048, 728 340.039" fill="url(#top-gradient)" />
  <path d="M 784.500 497 C 781.750 498.631, 776.647 500.924, 773.160 502.094 C 760.212 506.441, 751.222 506.958, 687.500 507.014 C 654.500 507.043, 622.972 507.476, 617.438 507.975 C 599.499 509.594, 585.454 514.214, 572.933 522.614 C 565.611 527.527, 557.244 535.879, 551.982 543.526 C 547.306 550.322, 542.274 561.579, 539.925 570.500 C 538.022 577.726, 537.769 582.055, 537.316 615.250 L 536.814 652 632.907 652 L 729 652 729.022 619.750 C 729.042 590.542, 729.218 587.116, 730.893 583.429 C 734.264 576.006, 738.662 573.349, 762.147 564.542 C 775.105 559.683, 784.928 552.726, 790.076 544.761 C 792.240 541.412, 794.565 536.834, 795.242 534.586 C 795.918 532.339, 796.443 526, 796.407 520.500 C 796.349 511.673, 795.961 509.532, 793.098 502.250 C 791.314 497.712, 789.775 494.008, 789.677 494.017 C 789.580 494.026, 787.250 495.369, 784.500 497" fill="url(#bottom-gradient)" />
  <path d="M 965.500 464.646 C 956.307 466.263, 928.367 466.931, 855.833 467.269 C 828.516 467.396, 805.910 467.756, 805.597 468.069 C 805.285 468.381, 806.833 472.206, 809.037 476.569 C 811.241 480.931, 813.990 488.306, 815.146 492.957 C 816.923 500.109, 817.170 503.426, 816.752 514.457 C 816.335 525.435, 815.821 528.682, 813.503 534.968 C 809.907 544.722, 807.088 549.161, 799.668 556.750 L 793.558 563 835.529 562.969 C 858.613 562.952, 880.832 562.506, 884.904 561.977 C 900.931 559.897, 911.632 556.042, 925 547.534 C 933.467 542.146, 947.884 528.009, 953.791 519.303 C 962.163 506.965, 968.568 492.040, 972.557 475.571 C 975.172 464.778, 975.423 462.932, 974.250 463.120 C 973.837 463.185, 969.900 463.872, 965.500 464.646" fill="url(#right-gradient)" />
  <path d="M 738 570.536 C 734.425 571.222, 729.475 571.885, 727 572.008 C 724.525 572.131, 723.288 572.438, 724.250 572.689 C 726.954 573.396, 726.325 574.859, 722.939 575.736 C 721.255 576.172, 719.867 576.973, 719.854 577.515 C 719.841 578.057, 719.379 579.043, 718.829 579.706 C 718.278 580.370, 718.161 581.452, 718.568 582.111 C 719.020 582.842, 718.886 583.047, 718.224 582.638 C 717.627 582.269, 716.856 582.425, 716.510 582.984 C 716.118 583.618, 717.691 584.006, 720.691 584.015 C 723.336 584.024, 726.120 584.423, 726.878 584.903 C 727.705 585.427, 720.918 585.972, 709.878 586.267 C 690.239 586.793, 681.362 588.346, 668 593.594 C 645.162 602.563, 631.955 620.470, 632.014 642.386 C 632.021 645.199, 632.299 648.513, 632.630 649.750 L 633.233 652 681.117 652 L 729 652 729.074 619.750 C 729.115 602.013, 729.340 586.472, 729.573 585.217 C 730.098 582.395, 732.900 578, 734.174 578 C 734.693 578, 734.794 577.438, 734.399 576.750 C 734.003 576.063, 734.038 575.824, 734.477 576.220 C 734.915 576.617, 736.530 576.047, 738.064 574.954 C 739.599 573.861, 742.800 572.085, 745.177 571.006 C 748.530 569.484, 748.939 569.071, 747 569.165 C 745.625 569.232, 741.575 569.849, 738 570.536" fill="url(#inner-gradient)" />
</svg>